<svg width="380" height="240" version="1.1" viewBox="0 0 100.54 63.5" xmlns="http://www.w3.org/2000/svg">
  <g transform="translate(-79.375 -161.4)" fill="#374548">
    <path d="m74.083 52.917v37.042h-15.875l31.75 21.167 31.75-21.167h-15.875v-37.042z"/>
    <path d="m206.38 100.54h63.5c1e-5 13.794-14.669 26.911-31.75 42.333-15.686-14.828-31.75-28.521-31.75-42.333zm63.5-1e-5a18.521 18.521 0 0 1-18.521 18.521 18.521 18.521 0 0 1-18.521-18.521 18.521 18.521 0 0 1 18.521-18.521 18.521 18.521 0 0 1 18.521 18.521zm-26.458 0a18.521 18.521 0 0 1-18.521 18.521 18.521 18.521 0 0 1-18.521-18.521 18.521 18.521 0 0 1 18.521-18.521 18.521 18.521 0 0 1 18.521 18.521z"/>
    <path d="m87.403 161.4c-5.3822 0-8.0279 2.6457-8.0279 7.2383v32.564c-1e-6 5.1768 2.6457 7.8228 8.1235 7.8228h44.431l13.591 15.875 13.229-15.875h13.229c5.2916 0 7.9375-2.6456 7.9375-7.9189v-31.845c0-5.2154-2.6457-7.861-8.7018-7.861zm13.139 13.229a7.9375 7.9375 0 0 1 7.9375 7.9375 7.9375 7.9375 0 0 1-7.9375 7.9375 7.9375 7.9375 0 0 1-7.9375-7.9375 7.9375 7.9375 0 0 1 7.9375-7.9375zm29.104 0a7.9375 7.9375 0 0 1 7.9375 7.9375 7.9375 7.9375 0 0 1-7.9375 7.9375 7.9375 7.9375 0 0 1-7.9375-7.9375 7.9375 7.9375 0 0 1 7.9375-7.9375zm29.104 0a7.9375 7.9375 0 0 1 7.9375 7.9375 7.9375 7.9375 0 0 1-7.9375 7.9375 7.9375 7.9375 0 0 1-7.9375-7.9375 7.9375 7.9375 0 0 1 7.9375-7.9375z"/>
  </g>
</svg>
