<svg width="240" height="230" version="1.1" viewBox="0 0 63.5 60.854" xmlns="http://www.w3.org/2000/svg">
  <g transform="translate(-206.37 -82.021)">
    <path d="m74.083 52.917v37.042h-15.875l31.75 21.167 31.75-21.167h-15.875v-37.042z" fill="#374548"/>
    <path d="m84.667 153.46 10.583 10.583 10.879-10.879c3.3197-4.3158 10.785-5.6518 15.58-4.9965 15.875 0 16.02 21.041 10.583 31.75l-37.042 42.333-42.333-42.333c-5.2917-10.583-5.2917-31.75 15.438-31.426 4.978-1.0377 12.805 1.4602 16.312 4.9679z" fill="none" stroke="#000" stroke-width=".26458px"/>
    <path d="m206.38 100.54h63.5c1e-5 13.794-14.669 26.911-31.75 42.333-15.686-14.828-31.75-28.521-31.75-42.333zm63.5-1e-5a18.521 18.521 0 0 1-18.521 18.521 18.521 18.521 0 0 1-18.521-18.521 18.521 18.521 0 0 1 18.521-18.521 18.521 18.521 0 0 1 18.521 18.521zm-26.458 0a18.521 18.521 0 0 1-18.521 18.521 18.521 18.521 0 0 1-18.521-18.521 18.521 18.521 0 0 1 18.521-18.521 18.521 18.521 0 0 1 18.521 18.521z" fill="#374548"/>
  </g>
</svg>
