<svg width="540.06" height="421.54" version="1.1" viewBox="0 0 142.89 111.53" xmlns="http://www.w3.org/2000/svg">
  <g transform="translate(-29.096 -22.601)" fill="#dbe2e3">
    <g transform="translate(74.075 3.9476)">
      <path d="m-25.06 60.531c11.344-8.4309 17.338-23.781 27.745-26.455 12.827-3.2953 35.792-3.1947 47.563 0 11.577 3.1422 16.8 19.424 27.745 26.455-9.0931-13.26 9.442-31.321-29.142-39.364-16.182-3.5195-29.568-3.1533-45.492-0.08032-41.119 8.0647-19.719 26.466-28.419 39.445z"/>
      <path d="m-21.167 129.87-5.2917-5.2917c-7.5192-5.1222-18.508-8.9635-18.521-17.905v-18.515c1e-6 -5.6766 0-9.2604 2.7542-12.134l3.8604-1.7157 11.906-7.322 5.2882-5.0205c1.3264-0.88661 1.9284-1.3046 2.6493 0.35551v64.904c-0.05562 3.19-0.52419 3.2048-2.6458 2.6458z"/>
      <path d="m-2.4995 71.817h-5.438v47.246h5.438z"/>
      <path d="m5.3044 76.729h-5.3044v37.042h5.3044z"/>
      <path d="m13.367 82.021h-5.3171v26.458h5.3171z"/>
      <path d="m21.183 87.317h-5.3237v15.8h5.3237z"/>
      <path d="m-10.455 66.281h-5.2848v57.938h5.2848z"/>
      <rect x="23.812" y="92.604" width="5.2917" height="5.2917" ry="0"/>
      <g transform="translate(-10.567 -.44316)">
        <path d="m84.667 130.35 5.2917-5.2917c7.5192-5.1222 18.508-8.9635 18.521-17.905v-18.515c0-5.6766 0-9.2604-2.7542-12.134l-3.8604-1.7157-11.906-7.322-5.2882-5.0205c-1.3264-0.88661-1.9284-1.3046-2.6493 0.35551v64.904c0.05562 3.19 0.52419 3.2048 2.6458 2.6458z"/>
        <path d="m66 72.293h5.438v47.246h-5.438z"/>
        <path d="m58.196 77.205h5.3044v37.042h-5.3044z"/>
        <path d="m50.133 82.497h5.3171v26.458h-5.3171z"/>
        <path d="m42.317 87.793h5.3237v15.8h-5.3237z"/>
        <path d="m73.955 66.758h5.2848v57.938h-5.2848z"/>
      </g>
      <rect transform="rotate(45)" x="45.857" y="8.4283" width="26.132" height="26.132"/>
    </g>
    <path d="m-121.71-58.208-21.167 15.875v21.167l15.875 21.167-5.2917 21.167-37.042 10.583v15.875h105.83v-15.875l-37.042-10.583-5.2917-21.167 15.875-21.167v-21.167l-21.167-15.875z"/>
  </g>
</svg>
