<?xml version="1.0" encoding="UTF-8" standalone="no"?>
<!-- Created with Inkscape (http://www.inkscape.org/) -->

<svg
   width="450.02826"
   height="447.31155"
   viewBox="0 0 119.06997 118.35117"
   version="1.1"
   id="svg5"
   inkscape:version="1.2 (0838b55d0b, 2022-06-10, custom)"
   sodipodi:docname="SampleSpace-logo.svg"
   xmlns:inkscape="http://www.inkscape.org/namespaces/inkscape"
   xmlns:sodipodi="http://sodipodi.sourceforge.net/DTD/sodipodi-0.dtd"
   xmlns="http://www.w3.org/2000/svg"
   xmlns:svg="http://www.w3.org/2000/svg">
  <sodipodi:namedview
     id="namedview7"
     pagecolor="#ffffff"
     bordercolor="#eeeeee"
     borderopacity="1"
     inkscape:showpageshadow="true"
     inkscape:pageopacity="0"
     inkscape:pagecheckerboard="0"
     inkscape:deskcolor="#ffffff"
     inkscape:document-units="px"
     showgrid="false"
     inkscape:zoom="0.99276681"
     inkscape:cx="224.62475"
     inkscape:cy="227.64661"
     inkscape:window-width="1920"
     inkscape:window-height="1043"
     inkscape:window-x="0"
     inkscape:window-y="0"
     inkscape:window-maximized="1"
     inkscape:current-layer="layer1">
    <inkscape:grid
       type="xygrid"
       id="grid92"
       originx="186.53124"
       originy="81.309503" />
  </sodipodi:namedview>
  <defs
     id="defs2" />
  <g
     inkscape:label="Layer 1"
     inkscape:groupmode="layer"
     id="layer1"
     transform="translate(186.53124,81.309508)">
    <g
       id="g4045"
       transform="matrix(0.59782686,0,0,0.59782686,41.101735,9.6568696)" />
    <g
       id="g1647"
       transform="translate(74.075318,3.9475653)"
       inkscape:export-filename="../9b4ef580/SampleSpace-logo-dark.png"
       inkscape:export-xdpi="88.714653"
       inkscape:export-ydpi="88.714653"
       style="fill:#dbe2e3;fill-opacity:1;stroke:none">
      <path
         style="fill:#dbe2e3;fill-opacity:1;stroke:none;stroke-width:0.323816px;stroke-linecap:butt;stroke-linejoin:miter;stroke-opacity:1"
         d="m -25.059524,60.530987 c 11.343721,-8.43092 17.3379213,-23.78143 27.7449613,-26.455093 12.8265537,-3.295258 35.7921267,-3.194713 47.5627897,0 C 61.825432,37.218099 67.04871,53.499742 77.993183,60.530987 68.900066,47.270821 87.435193,29.21014 48.85094,21.166666 32.669167,17.647202 19.282942,18.013377 3.3590413,21.086346 -37.76021,29.151025 -16.360277,47.55231 -25.059524,60.530987 Z"
         id="path1087"
         sodipodi:nodetypes="csscccc" />
      <g
         id="g1625"
         style="fill:#dbe2e3;fill-opacity:1;stroke:none">
        <g
           id="g1600"
           style="fill:#dbe2e3;fill-opacity:1;stroke:none">
          <path
             style="fill:#dbe2e3;fill-opacity:1;stroke:none;stroke-width:0.264583px;stroke-linecap:butt;stroke-linejoin:miter;stroke-opacity:1"
             d="m -21.166667,129.87417 -5.291666,-5.29166 c -7.519158,-5.12223 -18.508191,-8.96353 -18.520833,-17.90538 V 88.161896 c 10e-7,-5.67665 0,-9.26042 2.754226,-12.1345 l 3.860357,-1.71572 11.90625,-7.32205 5.28817,-5.02051 c 1.326413,-0.88661 1.928396,-1.30459 2.64933,0.35551 v 64.903714 c -0.05562,3.19001 -0.524191,3.20477 -2.645834,2.64583 z"
             id="path144"
             sodipodi:nodetypes="ccccccccccc" />
          <path
             style="fill:#dbe2e3;fill-opacity:1;stroke:none;stroke-width:0.247329px;stroke-linecap:butt;stroke-linejoin:miter;stroke-opacity:1"
             d="m -2.4995074,71.81686 h -5.4379925 v 47.24564 h 5.4379925 z"
             id="path1113-5-3-9" />
          <path
             style="fill:#dbe2e3;fill-opacity:1;stroke:none;stroke-width:0.216292px;stroke-linecap:butt;stroke-linejoin:miter;stroke-opacity:1"
             d="M 5.3044007,76.729166 H 0 v 37.041664 h 5.3044007 z"
             id="path1113-5-3-5-1" />
          <path
             style="fill:#dbe2e3;fill-opacity:1;stroke:none;stroke-width:0.18302px;stroke-linecap:butt;stroke-linejoin:miter;stroke-opacity:1"
             d="M 13.366591,82.020832 H 8.0494562 v 26.458338 h 5.3171348 z"
             id="path1113-5-3-5-6-27" />
          <path
             style="fill:#dbe2e3;fill-opacity:1;stroke:none;stroke-width:0.141518px;stroke-linecap:butt;stroke-linejoin:miter;stroke-opacity:1"
             d="M 21.1827,87.316939 H 15.858967 V 103.11674 H 21.1827 Z"
             id="path1113-5-3-5-6-2-0" />
          <path
             style="fill:#dbe2e3;fill-opacity:1;stroke:none;stroke-width:0.270003px;stroke-linecap:butt;stroke-linejoin:miter;stroke-opacity:1"
             d="m -10.455214,66.28127 h -5.284784 v 57.93789 h 5.284784 z"
             id="path1113-7-9" />
        </g>
        <rect
           style="fill:#dbe2e3;fill-opacity:1;stroke:none;stroke-width:0.661458;stroke-linecap:round;stroke-linejoin:round"
           id="rect1500"
           width="5.2916665"
           height="5.2916665"
           x="23.8125"
           y="92.604164"
           ry="0" />
        <g
           id="g1608"
           transform="translate(-10.567299,-0.4431602)"
           style="fill:#dbe2e3;fill-opacity:1;stroke:none">
          <path
             style="fill:#dbe2e3;fill-opacity:1;stroke:none;stroke-width:0.264583px;stroke-linecap:butt;stroke-linejoin:miter;stroke-opacity:1"
             d="m 84.666666,130.35049 5.291666,-5.29166 C 97.47749,119.9366 108.46652,116.0953 108.47916,107.15345 V 88.638215 c 0,-5.67665 0,-9.26042 -2.75422,-12.1345 l -3.86036,-1.71572 -11.906248,-7.32205 -5.28817,-5.02051 c -1.326413,-0.88661 -1.928396,-1.30459 -2.64933,0.35551 v 64.903715 c 0.05562,3.19001 0.524191,3.20477 2.645834,2.64583 z"
             id="path144-6"
             sodipodi:nodetypes="ccccccccccc" />
          <path
             style="fill:#dbe2e3;fill-opacity:1;stroke:none;stroke-width:0.247329px;stroke-linecap:butt;stroke-linejoin:miter;stroke-opacity:1"
             d="m 65.999506,72.293179 h 5.437993 v 47.245641 h -5.437993 z"
             id="path1113-5-3-9-0" />
          <path
             style="fill:#dbe2e3;fill-opacity:1;stroke:none;stroke-width:0.216292px;stroke-linecap:butt;stroke-linejoin:miter;stroke-opacity:1"
             d="m 58.195598,77.205485 h 5.304401 v 37.041665 h -5.304401 z"
             id="path1113-5-3-5-1-6" />
          <path
             style="fill:#dbe2e3;fill-opacity:1;stroke:none;stroke-width:0.18302px;stroke-linecap:butt;stroke-linejoin:miter;stroke-opacity:1"
             d="m 50.133408,82.497151 h 5.317135 v 26.458339 h -5.317135 z"
             id="path1113-5-3-5-6-27-2" />
          <path
             style="fill:#dbe2e3;fill-opacity:1;stroke:none;stroke-width:0.141518px;stroke-linecap:butt;stroke-linejoin:miter;stroke-opacity:1"
             d="m 42.317299,87.793258 h 5.323733 v 15.799802 h -5.323733 z"
             id="path1113-5-3-5-6-2-0-6" />
          <path
             style="fill:#dbe2e3;fill-opacity:1;stroke:none;stroke-width:0.270003px;stroke-linecap:butt;stroke-linejoin:miter;stroke-opacity:1"
             d="m 73.955213,66.757589 h 5.284784 v 57.937891 h -5.284784 z"
             id="path1113-7-9-1" />
        </g>
      </g>
      <rect
         style="fill:#dbe2e3;fill-opacity:1;stroke:none;stroke-width:0.653312;stroke-linecap:round;stroke-linejoin:round"
         id="rect1627"
         width="26.13249"
         height="26.132481"
         x="45.857372"
         y="8.4282923"
         transform="rotate(45.000013)" />
    </g>
    <g
       id="g4124">
      <path
         style="fill:#dbe2e3;fill-opacity:1;stroke:none;stroke-width:0.323816px;stroke-linecap:butt;stroke-linejoin:miter;stroke-opacity:1"
         d="m -332.70808,-110.28394 c 11.34372,-8.43092 17.33792,-23.78143 27.74496,-26.4551 12.82655,-3.29525 35.79212,-3.19471 47.56279,0 11.5772,3.14221 16.80048,19.42385 27.74495,26.4551 -9.09311,-13.26017 9.44201,-31.32085 -29.14224,-39.36432 -16.18177,-3.51947 -29.568,-3.15329 -45.4919,-0.0803 -41.11925,8.06468 -19.71932,26.46596 -28.41856,39.44464 z"
         id="path1087-9"
         sodipodi:nodetypes="csscccc"
         transform="matrix(0.59782686,0,0,0.59782686,41.101735,9.6568696)" />
      <path
         style="fill:#dbe2e3;fill-opacity:1;stroke:none;stroke-width:0.264583px;stroke-linecap:butt;stroke-linejoin:miter;stroke-opacity:1"
         d="m -325.27836,-44.023753 -5.92297,-4.574032 c -8.11071,-4.122075 -19.49971,-6.531398 -20.65197,-15.398706 l -2.35993,-18.364223 c -0.72353,-5.63035 -1.18032,-9.184891 1.18512,-12.38658 l 3.6102,-2.193759 10.87589,-8.779877 4.60513,-5.65359 c 1.20258,-1.04843 1.74638,-1.53974 2.67303,0.0149 l 8.27252,64.374352 c 0.35145,3.171081 -0.11144,3.245444 -2.28702,2.961485 z"
         id="path144-2"
         sodipodi:nodetypes="ccccccccccc"
         transform="matrix(0.59782686,0,0,0.59782686,41.101735,9.6568696)" />
      <path
         style="fill:#dbe2e3;fill-opacity:1;stroke:none;stroke-width:0.264583px;stroke-linecap:butt;stroke-linejoin:miter;stroke-opacity:1"
         d="m -237.24577,-44.023755 5.92297,-4.574032 c 8.11071,-4.122075 19.49971,-6.531398 20.65197,-15.398706 l 2.35993,-18.364223 c 0.72353,-5.630352 1.18032,-9.184892 -1.18512,-12.386582 l -3.6102,-2.19376 -10.87589,-8.779872 -4.60513,-5.65359 c -1.20258,-1.04843 -1.74638,-1.53974 -2.67303,0.0149 l -8.27252,64.37435 c -0.35145,3.171081 0.11144,3.245444 2.28702,2.961485 z"
         id="path144-2-3"
         sodipodi:nodetypes="ccccccccccc"
         transform="matrix(0.59782686,0,0,0.59782686,41.101735,9.6568696)" />
      <path
         style="fill:#dbe2e3;fill-opacity:1;stroke:none;stroke-width:0.264583px;stroke-linecap:butt;stroke-linejoin:miter;stroke-opacity:1"
         d="m -154.78124,-46.302081 c -0.35119,1.755167 -0.15556,4.733937 1.32292,10.583333 3.65467,9.9001 9.61146,16.784038 15.87499,25.135416 1.85871,7.2226241 -0.17743,14.2656236 -5.29166,21.166666 l -37.04167,10.583334 c -6.00773,4.272463 -6.59331,9.99811 -6.61458,15.874997 h 119.062493 c 0.108369,-6.136716 -0.907181,-11.862851 -6.614585,-15.874997 L -111.125,10.583334 c -5.04144,-6.8395814 -7.18705,-13.8699827 -5.29166,-21.166666 8.03877,-8.985261 11.40824,-15.763378 15.875,-26.458333 1.312298,-4.356207 1.441398,-6.582562 1.322918,-9.260416 0.19867,-5.805068 -0.799178,-6.266844 -4.105318,-10.202699 -6.5387,-7.75847 -14.25191,-12.286885 -23.97121,-12.286885 -10.79651,0.556479 -19.05872,6.239307 -23.50941,11.75112 -3.29966,3.91885 -3.97656,5.633539 -3.97656,10.738464 z"
         id="path3429"
         sodipodi:nodetypes="cccccccccccccccc"
         inkscape:export-filename="../5fa4cd43/user-icon.png"
         inkscape:export-xdpi="88.714653"
         inkscape:export-ydpi="88.714653" />
    </g>
  </g>
</svg>
