<svg width="450.03" height="447.31" version="1.1" viewBox="0 0 119.07 118.35" xmlns="http://www.w3.org/2000/svg">
  <g transform="translate(186.53 81.31)">
    <g transform="translate(74.075 3.9476)" fill="#dbe2e3">
      <path d="m-25.06 60.531c11.344-8.4309 17.338-23.781 27.745-26.455 12.827-3.2953 35.792-3.1947 47.563 0 11.577 3.1422 16.8 19.424 27.745 26.455-9.0931-13.26 9.442-31.321-29.142-39.364-16.182-3.5195-29.568-3.1533-45.492-0.08032-41.119 8.0647-19.719 26.466-28.419 39.445z"/>
      <path d="m-21.167 129.87-5.2917-5.2917c-7.5192-5.1222-18.508-8.9635-18.521-17.905v-18.515c1e-6 -5.6766 0-9.2604 2.7542-12.134l3.8604-1.7157 11.906-7.322 5.2882-5.0205c1.3264-0.88661 1.9284-1.3046 2.6493 0.35551v64.904c-0.05562 3.19-0.52419 3.2048-2.6458 2.6458z"/>
      <path d="m-2.4995 71.817h-5.438v47.246h5.438z"/>
      <path d="m5.3044 76.729h-5.3044v37.042h5.3044z"/>
      <path d="m13.367 82.021h-5.3171v26.458h5.3171z"/>
      <path d="m21.183 87.317h-5.3237v15.8h5.3237z"/>
      <path d="m-10.455 66.281h-5.2848v57.938h5.2848z"/>
      <rect x="23.812" y="92.604" width="5.2917" height="5.2917" ry="0"/>
      <g transform="translate(-10.567 -.44316)">
        <path d="m84.667 130.35 5.2917-5.2917c7.5192-5.1222 18.508-8.9635 18.521-17.905v-18.515c0-5.6766 0-9.2604-2.7542-12.134l-3.8604-1.7157-11.906-7.322-5.2882-5.0205c-1.3264-0.88661-1.9284-1.3046-2.6493 0.35551v64.904c0.05562 3.19 0.52419 3.2048 2.6458 2.6458z"/>
        <path d="m66 72.293h5.438v47.246h-5.438z"/>
        <path d="m58.196 77.205h5.3044v37.042h-5.3044z"/>
        <path d="m50.133 82.497h5.3171v26.458h-5.3171z"/>
        <path d="m42.317 87.793h5.3237v15.8h-5.3237z"/>
        <path d="m73.955 66.758h5.2848v57.938h-5.2848z"/>
      </g>
      <rect transform="rotate(45)" x="45.857" y="8.4283" width="26.132" height="26.132"/>
    </g>
    <g fill="#374548">
      <path transform="matrix(.59783 0 0 .59783 41.102 9.6569)" d="m-332.71-110.28c11.344-8.4309 17.338-23.781 27.745-26.455 12.827-3.2952 35.792-3.1947 47.563 0 11.577 3.1422 16.8 19.424 27.745 26.455-9.0931-13.26 9.442-31.321-29.142-39.364-16.182-3.5195-29.568-3.1533-45.492-0.0803-41.119 8.0647-19.719 26.466-28.419 39.445z"/>
      <path transform="matrix(.59783 0 0 .59783 41.102 9.6569)" d="m-325.28-44.024-5.923-4.574c-8.1107-4.1221-19.5-6.5314-20.652-15.399l-2.3599-18.364c-0.72353-5.6304-1.1803-9.1849 1.1851-12.387l3.6102-2.1938 10.876-8.7799 4.6051-5.6536c1.2026-1.0484 1.7464-1.5397 2.673 0.0149l8.2725 64.374c0.35145 3.1711-0.11144 3.2454-2.287 2.9615z"/>
      <path transform="matrix(.59783 0 0 .59783 41.102 9.6569)" d="m-237.25-44.024 5.923-4.574c8.1107-4.1221 19.5-6.5314 20.652-15.399l2.3599-18.364c0.72353-5.6304 1.1803-9.1849-1.1851-12.387l-3.6102-2.1938-10.876-8.7799-4.6051-5.6536c-1.2026-1.0484-1.7464-1.5397-2.673 0.0149l-8.2725 64.374c-0.35145 3.1711 0.11144 3.2454 2.287 2.9615z"/>
      <path d="m-154.78-46.302c-0.35119 1.7552-0.15556 4.7339 1.3229 10.583 3.6547 9.9001 9.6115 16.784 15.875 25.135 1.8587 7.2226-0.17743 14.266-5.2917 21.167l-37.042 10.583c-6.0077 4.2725-6.5933 9.9981-6.6146 15.875h119.06c0.10837-6.1367-0.90718-11.863-6.6146-15.875l-37.042-10.583c-5.0414-6.8396-7.187-13.87-5.2917-21.167 8.0388-8.9853 11.408-15.763 15.875-26.458 1.3123-4.3562 1.4414-6.5826 1.3229-9.2604 0.19867-5.8051-0.79918-6.2668-4.1053-10.203-6.5387-7.7585-14.252-12.287-23.971-12.287-10.797 0.55648-19.059 6.2393-23.509 11.751-3.2997 3.9188-3.9766 5.6335-3.9766 10.738z"/>
    </g>
  </g>
</svg>
